<mxfile host="app.diagrams.net" agent="Mozilla/5.0 (Macintosh; Intel Mac OS X 10_15_7) AppleWebKit/537.36 (KHTML, like Gecko) Chrome/138.0.0.0 Safari/537.36" version="27.2.0">
  <diagram name="Page-1" id="2YBvvXClWsGukQMizWep">
    <mxGraphModel dx="1339" dy="694" grid="1" gridSize="10" guides="1" tooltips="1" connect="1" arrows="1" fold="1" page="1" pageScale="1" pageWidth="850" pageHeight="1100" math="0" shadow="0">
      <root>
        <mxCell id="0" />
        <mxCell id="1" parent="0" />
        <mxCell id="aM9ryv3xv72pqoxQDRHE-1" value=":Object" style="shape=umlLifeline;perimeter=lifelinePerimeter;whiteSpace=wrap;html=1;container=0;dropTarget=0;collapsible=0;recursiveResize=0;outlineConnect=0;portConstraint=eastwest;newEdgeStyle={&quot;edgeStyle&quot;:&quot;elbowEdgeStyle&quot;,&quot;elbow&quot;:&quot;vertical&quot;,&quot;curved&quot;:0,&quot;rounded&quot;:0};" parent="1" vertex="1">
          <mxGeometry x="160" y="50" width="100" height="300" as="geometry" />
        </mxCell>
        <mxCell id="aM9ryv3xv72pqoxQDRHE-2" value="" style="html=1;points=[];perimeter=orthogonalPerimeter;outlineConnect=0;targetShapes=umlLifeline;portConstraint=eastwest;newEdgeStyle={&quot;edgeStyle&quot;:&quot;elbowEdgeStyle&quot;,&quot;elbow&quot;:&quot;vertical&quot;,&quot;curved&quot;:0,&quot;rounded&quot;:0};" parent="aM9ryv3xv72pqoxQDRHE-1" vertex="1">
          <mxGeometry x="45" y="70" width="10" height="190" as="geometry" />
        </mxCell>
        <mxCell id="EZf0TgpBqHw7yktRxoJK-5" style="edgeStyle=orthogonalEdgeStyle;rounded=0;orthogonalLoop=1;jettySize=auto;html=1;" edge="1" parent="1" source="EZf0TgpBqHw7yktRxoJK-3" target="aM9ryv3xv72pqoxQDRHE-1">
          <mxGeometry relative="1" as="geometry">
            <Array as="points">
              <mxPoint x="160" y="140" />
              <mxPoint x="160" y="140" />
            </Array>
          </mxGeometry>
        </mxCell>
        <mxCell id="EZf0TgpBqHw7yktRxoJK-6" value="POST /upload ─►" style="edgeLabel;html=1;align=center;verticalAlign=middle;resizable=0;points=[];" vertex="1" connectable="0" parent="EZf0TgpBqHw7yktRxoJK-5">
          <mxGeometry x="-0.3978" y="3" relative="1" as="geometry">
            <mxPoint as="offset" />
          </mxGeometry>
        </mxCell>
        <mxCell id="EZf0TgpBqHw7yktRxoJK-3" value="Actor" style="shape=umlActor;verticalLabelPosition=bottom;verticalAlign=top;html=1;outlineConnect=0;" vertex="1" parent="1">
          <mxGeometry x="40" y="110" width="30" height="60" as="geometry" />
        </mxCell>
      </root>
    </mxGraphModel>
  </diagram>
</mxfile>
